<svg width="1694" height="1401" xmlns="http://www.w3.org/2000/svg" xmlns:xlink="http://www.w3.org/1999/xlink" xml:space="preserve" overflow="hidden"><defs><clipPath id="clip0"><rect x="-87" y="-137" width="1694" height="1401"/></clipPath></defs><g clip-path="url(#clip0)" transform="translate(87 137)"><path d="" transform="translate(313.719 713)"/><path d="M141.998 116.92C133.747 116.92 126.094 115.401 119.037 112.361 111.981 109.321 105.793 105.142 100.473 99.822 95.1539 94.5025 90.9743 88.3145 87.9346 81.2581 84.8949 74.2016 83.375 66.548 83.375 58.2974 83.375 51.3494 84.5692 44.6187 86.9575 38.105 89.3459 31.5913 92.8198 25.729 97.3794 20.5181L140.044-107.15 221.791-134.507C225.264-135.593 228.467-138.633 231.398-143.626 234.329-148.62 237.098-154.211 239.703-160.399 242.309-166.587 244.914-172.612 247.52-178.475 250.125-184.337 252.839-188.679 255.662-191.502L644.202-580.368C653.321-589.487 663.797-596.49 675.631-601.375 687.464-606.26 699.785-608.703 712.596-608.703 725.84-608.703 738.325-606.151 750.049-601.049 761.774-595.947 771.979-589.053 780.664-580.368 789.348-571.683 796.242-561.479 801.344-549.754 806.447-538.029 808.998-525.545 808.998-512.3 808.998-499.273 806.555-486.897 801.67-475.172 796.785-463.448 789.783-453.026 780.664-443.907L392.123-55.3662C389.3-52.5436 384.958-49.8839 379.096-47.387 373.233-44.8901 367.208-42.3389 361.02-39.7334 354.832-37.1279 349.241-34.3596 344.248-31.4285 339.254-28.4973 336.105-25.1862 334.803-21.4951L307.771 60.2515 179.777 102.916C174.566 107.476 168.704 110.95 162.19 113.338 155.677 115.726 148.946 116.92 141.998 116.92Z" transform="translate(313.719 713)"/><path d="M317.542-70.3477 271.294-72.9531 271.294-117.246C273.249-120.503 275.094-124.248 276.831-128.482 278.568-132.716 280.359-136.95 282.205-141.184 284.05-145.418 285.95-149.543 287.904-153.56 289.858-157.577 291.921-160.996 294.092-163.819 301.04-172.504 308.639-180.537 316.89-187.919 325.141-195.302 333.174-202.901 340.991-210.717L434.462-304.514 467.682-295.721 457.585-327.638 668.628-538.355 734.417-538.355 738.65-468.333 527.933-257.29 496.016-266.409 504.81-234.167 411.013-140.695C403.196-132.879 395.597-124.845 388.215-116.595 380.833-108.344 372.799-100.745 364.114-93.7969 361.292-91.6256 357.872-89.563 353.855-87.6089 349.838-85.6548 345.713-83.755 341.479-81.9094 337.245-80.0639 333.011-78.1641 328.778-76.21 324.544-74.2559 320.798-72.3018 317.542-70.3477Z" fill="#383838" transform="translate(313.719 713)"/><path d="M294.092-46.8984 270.643 23.4492 147.86 64.1597 136.136 52.7607 176.846-70.3477 247.194-93.7969 291.812-90.54Z" fill="#CCCCCC" transform="translate(313.719 713)"/><path d="M223.745-46.8984C230.258-46.8984 235.795-44.6187 240.354-40.0591 244.914-35.4995 247.194-29.9629 247.194-23.4492 247.194-16.9355 244.914-11.3989 240.354-6.83936 235.795-2.27979 230.258 0 223.745 0 221.791 0 219.836-0.325684 217.882-0.977051L150.14 66.7651C147.969 68.9364 145.255 70.022 141.998 70.022 138.741 70.022 135.919 68.9364 133.53 66.7651 131.142 64.5939 129.948 61.8799 129.948 58.623 129.948 55.3662 131.142 52.5436 133.53 50.1553L201.272-17.2612C200.621-19.2153 200.295-21.278 200.295-23.4492 200.295-29.7458 202.629-35.2281 207.298-39.8962 211.966-44.5644 217.448-46.8984 223.745-46.8984Z" fill="#757575" transform="translate(313.719 713)"/><path d="M762.1-511.975C762.1-501.987 759.874-493.791 755.423-487.385 750.972-480.98 745.381-474.63 738.65-468.333L668.628-538.355C671.885-541.829 675.034-545.031 678.073-547.963 681.113-550.894 684.37-553.391 687.844-555.453 691.318-557.516 695.063-559.09 699.08-560.176 703.097-561.261 707.602-561.804 712.596-561.804 719.544-561.804 726.003-560.501 731.974-557.896 737.945-555.291 743.156-551.762 747.607-547.311 752.058-542.86 755.586-537.595 758.191-531.516 760.797-525.436 762.1-518.922 762.1-511.975ZM527.933-339.362C527.933-342.619 529.127-345.442 531.516-347.83L652.019-468.333 668.628-451.723 548.125-331.22C545.737-328.832 543.023-327.638 539.983-327.638 536.944-327.638 534.175-328.778 531.678-331.057 529.182-333.337 527.933-336.105 527.933-339.362ZM434.462-304.514 457.911-327.638 528.259-257.616 504.81-234.167ZM247.194-93.7969 270.643-117.246 317.542-70.3477 294.092-46.8984Z" fill="#FFC83D" transform="translate(313.719 713)"/></g></svg>